<?xml version="1.0" standalone="no"?>
<!DOCTYPE svg PUBLIC "-//W3C//DTD SVG 20010904//EN"
 "http://www.w3.org/TR/2001/REC-SVG-20010904/DTD/svg10.dtd">
<svg version="1.0" xmlns="http://www.w3.org/2000/svg"
 width="512.000000pt" height="512.000000pt" viewBox="0 0 512.000000 512.000000"
 preserveAspectRatio="xMidYMid meet">
<metadata>
Created by potrace 1.11, written by Peter Selinger 2001-2013
</metadata>
<g transform="translate(0.000000,512.000000) scale(0.100000,-0.100000)"
fill="#000000" stroke="none">
<path d="M1857 5106 c-97 -36 -159 -122 -260 -361 -83 -199 -108 -238 -165
-262 -45 -19 -191 -18 -295 3 -47 9 -167 18 -223 17 -198 -3 -295 -103 -296
-305 -1 -46 2 -104 6 -130 3 -27 8 -69 12 -95 3 -27 7 -59 10 -73 2 -14 4 -62
5 -107 1 -134 -30 -167 -224 -248 -184 -77 -291 -133 -339 -179 -67 -63 -83
-98 -82 -182 0 -92 33 -161 153 -322 124 -166 146 -201 165 -254 14 -44 14
-52 0 -95 -14 -39 -76 -147 -95 -163 -25 -21 -164 -223 -191 -277 -28 -58 -33
-78 -32 -138 1 -141 72 -210 329 -319 181 -77 207 -90 248 -119 21 -16 45 -44
53 -64 19 -45 19 -162 0 -287 -38 -249 -19 -393 60 -455 32 -25 61 -27 91 -6
28 20 153 10 153 -11 0 -7 10 -23 22 -34 21 -19 31 -20 97 -15 41 3 78 8 81
10 10 6 161 18 217 17 105 -1 141 -43 244 -283 77 -181 105 -232 157 -287 55
-58 95 -76 177 -76 93 -1 160 31 325 155 186 140 229 165 296 173 45 5 126
-39 263 -142 220 -165 260 -185 367 -186 67 -1 75 1 127 38 75 51 115 113 207
328 47 107 92 196 114 223 32 39 43 45 89 52 66 9 175 4 257 -12 25 -5 137
-16 193 -19 71 -5 158 13 204 40 120 70 147 191 108 479 -23 174 -23 265 2
307 28 48 81 80 243 149 184 77 262 120 314 174 53 54 75 108 72 182 -3 75
-32 138 -111 249 -159 219 -194 272 -208 315 -27 79 -5 127 158 343 49 67 106
152 125 190 29 59 34 78 34 140 1 83 -12 113 -78 177 -54 54 -110 85 -291 161
-160 67 -237 114 -260 158 -22 42 -21 189 1 304 2 10 6 51 10 90 20 203 -5
306 -89 371 -83 63 -191 73 -427 40 -169 -23 -260 -23 -303 3 -44 25 -79 80
-133 207 -83 197 -132 289 -180 338 -64 66 -96 81 -179 81 -62 1 -80 -4 -140
-34 -39 -19 -115 -69 -170 -110 -243 -184 -288 -204 -380 -168 -28 11 -133 75
-145 89 -24 27 -228 168 -276 191 -74 34 -162 44 -217 24z"/>
</g>
</svg>
